# xmcd
#
# Track frame offsets:
#	150
#	23759
#	50989
#	76791
#	106906
#	132084
#	150495
#	172788
#
# Disc length: 2645 seconds
#
# Revision: 1
# Processed by: cddbd v1.5.2PL0 Copyright (c) Steve Scherf et al.
# Submitted via: audiograbber 1.83.01
#
DISCID=530a5308
DTITLE=Claudio Lolli - Lovesongs
DYEAR=2009
DGENRE=
TTITLE0=La pioggia prima o poi
TTITLE1=Aspirine
TTITLE2=Donna in fiume 
TTITLE3=Dita 
TTITLE4=Quello che mi resta
TTITLE5=Notte americana 
TTITLE6=Non aprire mai
TTITLE7=La giacca
EXTD=
EXTT0=
EXTT1=
EXTT2=
EXTT3=
EXTT4=
EXTT5=
EXTT6=
EXTT7=
PLAYORDER=
